# xmcd CD database file
#
# Track frame offsets:
#	183
#	21370
#	37945
#	68608
#	95058
#	123033
#	156558
#	183708
#	218248
#
# Disc length: 3211 seconds
#
# Revision: 0
# Processed by: cddbd v1.5.1PL2 Copyright (c) Steve Scherf et al.
# Submitted via: CDex 1.51
#
DISCID=7b0c8909
DTITLE=Karl Berger and Friends - Around
DYEAR=1990
DGENRE=Jazz
TTITLE0=Morning
TTITLE1=Travel South
TTITLE2=Around
TTITLE3=Still
TTITLE4=Permutations
TTITLE5=This Is It
TTITLE6=Guitar Vibes
TTITLE7=It's Me
TTITLE8=Funky Emperor
EXTD=YEAR: 1990
EXTT0=
EXTT1=
EXTT2=
EXTT3=
EXTT4=
EXTT5=
EXTT6=
EXTT7=
EXTT8=
PLAYORDER=
